<svg width="18" height="18" fill="none" xmlns="http://www.w3.org/2000/svg"><path fill-rule="evenodd" clip-rule="evenodd" d="m9 17.4 1.8-1.6v-.1c2-1.7 3.6-3.2 4.7-4.6 1.2-1.5 2-3 2-4.7a5 5 0 0 0-5.1-5.2A5.5 5.5 0 0 0 9 2.5a5.5 5.5 0 0 0-3.4-1.1 5 5 0 0 0-5.1 5c0 1.8.8 3.3 2 4.8 1.1 1.4 2.8 2.9 4.7 4.6L9 17.4z" fill="#fff"/><path d="M9 3.1a5 5 0 0 1 3.4-1.3A4.6 4.6 0 0 1 17 6.3a7 7 0 0 1-1.9 4.4 47.6 47.6 0 0 1-4.6 4.5v.1l-1.2 1-.3.3-.3-.3-1.1-1c-2-1.8-3.6-3.2-4.7-4.6A7 7 0 0 1 1 6.4a4.6 4.6 0 0 1 4.6-4.7A5 5 0 0 1 9 3.1zm0 10.2c1.7-1.5 3-2.8 4-3.9 1-1.2 1.5-2.1 1.5-3a2 2 0 0 0-2.1-2.2c-1 0-2 .7-2.2 1.5L10 6H8l-.2-.3a2.4 2.4 0 0 0-2.2-1.5 2 2 0 0 0-2.1 2.2c0 .9.5 1.8 1.5 3l4 4z" fill="#FFC107" stroke="#fff"/></svg>