<svg xmlns="http://www.w3.org/2000/svg" viewBox="0 0 59 59" style="enable-background:new 0 0 59 59" xml:space="preserve"><path d="M59 41V15h-9a1 1 0 1 0 0 2h7v22H11V17h7a1 1 0 1 0 0-2h-7V7c0-.6-.4-1-1-1H7.9a4 4 0 1 0 0 2H9v39c0 .6.4 1 1 1h7a5 5 0 0 0 3 9 5 5 0 0 0 3-9h18a5 5 0 0 0 3 9 5 5 0 0 0 3-9h6a1 1 0 1 0 0-2H11v-5h48zM4 9a2 2 0 0 1 0-4 2 2 0 0 1 1.7 1H5a1 1 0 1 0 0 2h.7c-.3.6-1 1-1.7 1zm16 46a3 3 0 1 1 0-6 3 3 0 0 1 0 6zm24 0a3 3 0 1 1 0-6 3 3 0 0 1 0 6z"/><path d="M34 30a14 14 0 1 0 0-28 14 14 0 0 0 0 28zm0-26a12 12 0 1 1 0 24 12 12 0 0 1 0-24z"/><path d="M27 16c.3 0 .5-.1.7-.3l5.3-5.3V24a1 1 0 1 0 2 0V10.4l5.3 5.3a1 1 0 0 0 1.4 0c.4-.4.4-1 0-1.4l-7-7-.3-.2a1 1 0 0 0-1.1.2l-7 7A1 1 0 0 0 27 16z"/></svg>