<svg xmlns="http://www.w3.org/2000/svg" viewBox="0 0 59 59" style="enable-background:new 0 0 59 59" xml:space="preserve"><path d="M50 15a1 1 0 1 0 0 2h7v22H11V17h7a1 1 0 1 0 0-2h-7V7c0-.6-.4-1-1-1H7.9a4 4 0 1 0 0 2H9v39c0 .6.4 1 1 1h7a5 5 0 0 0 3 9 5 5 0 0 0 3-9h18a5 5 0 0 0 3 9 5 5 0 0 0 3-9h6a1 1 0 1 0 0-2H11v-5h48V15h-9zM4 9a2 2 0 0 1 0-4 2 2 0 0 1 1.7 1H5a1 1 0 1 0 0 2h.7c-.3.6-1 1-1.7 1z"/><path d="M34 2a14 14 0 1 0 0 28 14 14 0 0 0 0-28zm7.7 15.7-7 7a1 1 0 0 1-.7.3 1 1 0 0 1-.7-.3l-7-7a1 1 0 1 1 1.4-1.4l5.3 5.3V8a1 1 0 1 1 2 0v13.6l5.3-5.3a1 1 0 1 1 1.4 1.4z"/></svg>